<svg height='100px' width='100px'  fill="#000000" xmlns="http://www.w3.org/2000/svg" xmlns:xlink="http://www.w3.org/1999/xlink" version="1.1" x="0px" y="0px" viewBox="0 0 100 100" enable-background="new 0 0 100 100" xml:space="preserve"><g><path d="M69.048,52.766c1.875-5.046,1.289-8.835,0.43-11.999L67.2,42.977l0.142,1.241c0.081,0.696,0.125,1.404,0.125,2.12   c0,1.401-0.164,2.804-0.483,4.169l-0.226,0.953c0.352,0.166,0.718,0.345,1.105,0.539L69.048,52.766z"></path><path d="M73.557,55.3c1.036,0.684,2.089,1.421,3.15,2.241c1.448-3.56,2.217-7.316,2.217-11.202c0-4.581-1.202-8.997-3.489-12.893   c-0.79,1.233-1.606,2.37-2.437,3.397c1.425,2.937,2.176,6.164,2.176,9.496C75.174,49.437,74.61,52.437,73.557,55.3z"></path><path d="M80.403,22.013c-0.555,2.191-1.28,4.218-2.108,6.101c3.01,5.564,4.589,11.764,4.589,18.225   c0,4.924-0.949,9.658-2.734,14.146c1.31,1.235,2.569,2.581,3.734,4.042c2.643-5.71,3.999-11.818,3.999-18.188   C87.884,37.556,85.287,29.205,80.403,22.013z"></path><path d="M55.839,53.836c4.356-4.824,6.939-12.274,7.567-18.192c1.24-1.179,2.023-2.834,2.023-4.681c0-1.34-0.407-2.584-1.104-3.616   c0.397-0.717,0.643-1.53,0.643-2.407c0-2.027-1.212-3.763-2.946-4.548c0.431-1.019,0.67-2.139,0.67-3.315   c0-4.703-3.813-8.516-8.516-8.516c-1.645,0-3.167,0.488-4.469,1.296c-1.545-2.155-4.057-3.572-6.911-3.572   c-4.151,0-7.599,2.973-8.353,6.904c-0.251-0.022-0.493-0.076-0.751-0.076c-4.703,0-8.516,3.813-8.516,8.516   c0,1.888,0.634,3.616,1.674,5.028c-1.03,1.146-1.674,2.645-1.674,4.307c0,2.38,1.3,4.438,3.214,5.562   c0.782,5.794,3.323,12.794,7.507,17.384C24.279,57.416,14.132,66.7,12.19,78.951c-0.804,5.074,5.118,8.442,8.95,10.167   c7.518,3.383,16.105,4.536,24.285,4.595c8.279,0.06,16.935-1.012,24.616-4.248c4.026-1.697,10.6-5.145,9.749-10.513   C77.835,66.614,67.558,57.286,55.839,53.836z M45.991,50.727c-6.008-0.005-8.352-5.102-8.583-7.029   c4.648,3.07,12.93,2.911,17.698-0.586C53.892,46.608,51.197,50.731,45.991,50.727z"></path></g></svg>